<svg xmlns="http://www.w3.org/2000/svg" viewBox="0 0 900 700" preserveAspectRatio="xMidYMid slice">
  <defs>
    <linearGradient id="bgE" x1="0" y1="0" x2="0" y2="1">
      <stop offset="0%" stop-color="#EEF4F8"/>
      <stop offset="100%" stop-color="#D6E1EC"/>
    </linearGradient>
    <linearGradient id="boxE" x1="0" y1="0" x2="0" y2="1">
      <stop offset="0%" stop-color="#FFFFFF"/>
      <stop offset="100%" stop-color="#E2E8F0"/>
    </linearGradient>
  </defs>
  <rect width="900" height="700" fill="url(#bgE)"/>
  <!-- Wall -->
  <rect width="900" height="700" fill="#F5EFE5"/>
  <!-- Electrical box -->
  <g transform="translate(220,90)">
    <rect width="460" height="520" rx="14" fill="#0A2540" stroke="#1F2D3D" stroke-width="2"/>
    <rect x="14" y="14" width="432" height="492" rx="8" fill="url(#boxE)"/>
    <!-- DIN rails -->
    <rect x="40" y="60" width="380" height="22" fill="#C5CCD4"/>
    <rect x="40" y="160" width="380" height="22" fill="#C5CCD4"/>
    <rect x="40" y="260" width="380" height="22" fill="#C5CCD4"/>
    <rect x="40" y="360" width="380" height="22" fill="#C5CCD4"/>
    <!-- Circuit breakers row 1 -->
    <g transform="translate(50,30)">
      <!-- Each breaker is 16 wide x 60 tall -->
      <g fill="#fff" stroke="#9CA4AE" stroke-width="0.8">
        <rect width="20" height="60"/>
        <rect x="22" width="20" height="60"/>
        <rect x="44" width="20" height="60"/>
        <rect x="66" width="20" height="60" fill="#FB7185"/>
        <rect x="88" width="20" height="60"/>
        <rect x="110" width="20" height="60"/>
        <rect x="132" width="20" height="60"/>
        <rect x="154" width="20" height="60" fill="#06B6A4"/>
        <rect x="176" width="20" height="60"/>
        <rect x="198" width="20" height="60"/>
        <rect x="220" width="20" height="60"/>
        <rect x="242" width="20" height="60"/>
        <rect x="264" width="20" height="60"/>
        <rect x="286" width="20" height="60"/>
        <rect x="308" width="20" height="60"/>
        <rect x="330" width="20" height="60"/>
        <rect x="352" width="20" height="60"/>
      </g>
      <!-- Switches -->
      <g fill="#0A2540">
        <rect x="6" y="20" width="8" height="14"/>
        <rect x="28" y="20" width="8" height="14"/>
        <rect x="50" y="20" width="8" height="14"/>
        <rect x="72" y="20" width="8" height="14"/>
        <rect x="94" y="20" width="8" height="14"/>
        <rect x="116" y="20" width="8" height="14"/>
        <rect x="138" y="20" width="8" height="14"/>
        <rect x="160" y="20" width="8" height="14"/>
        <rect x="182" y="20" width="8" height="14"/>
        <rect x="204" y="20" width="8" height="14"/>
        <rect x="226" y="20" width="8" height="14"/>
        <rect x="248" y="20" width="8" height="14"/>
        <rect x="270" y="20" width="8" height="14"/>
        <rect x="292" y="20" width="8" height="14"/>
        <rect x="314" y="20" width="8" height="14"/>
        <rect x="336" y="20" width="8" height="14"/>
        <rect x="358" y="20" width="8" height="14"/>
      </g>
    </g>
    <!-- Row 2 -->
    <g transform="translate(50,130)">
      <g fill="#fff" stroke="#9CA4AE" stroke-width="0.8">
        <rect width="20" height="60"/>
        <rect x="22" width="20" height="60"/>
        <rect x="44" width="20" height="60" fill="#FB7185"/>
        <rect x="66" width="20" height="60"/>
        <rect x="88" width="20" height="60"/>
        <rect x="110" width="20" height="60"/>
        <rect x="132" width="20" height="60"/>
        <rect x="154" width="20" height="60"/>
        <rect x="176" width="20" height="60"/>
        <rect x="198" width="20" height="60"/>
        <rect x="220" width="20" height="60"/>
        <rect x="242" width="20" height="60"/>
        <rect x="264" width="20" height="60"/>
        <rect x="286" width="20" height="60" fill="#06B6A4"/>
        <rect x="308" width="20" height="60"/>
        <rect x="330" width="20" height="60"/>
        <rect x="352" width="20" height="60"/>
      </g>
      <g fill="#0A2540">
        <rect x="6" y="20" width="8" height="14"/>
        <rect x="28" y="20" width="8" height="14"/>
        <rect x="50" y="20" width="8" height="14"/>
        <rect x="72" y="20" width="8" height="14"/>
        <rect x="94" y="20" width="8" height="14"/>
        <rect x="116" y="20" width="8" height="14"/>
        <rect x="138" y="20" width="8" height="14"/>
        <rect x="160" y="20" width="8" height="14"/>
        <rect x="182" y="20" width="8" height="14"/>
        <rect x="204" y="20" width="8" height="14"/>
        <rect x="226" y="20" width="8" height="14"/>
        <rect x="248" y="20" width="8" height="14"/>
        <rect x="270" y="20" width="8" height="14"/>
        <rect x="292" y="20" width="8" height="14"/>
        <rect x="314" y="20" width="8" height="14"/>
        <rect x="336" y="20" width="8" height="14"/>
        <rect x="358" y="20" width="8" height="14"/>
      </g>
    </g>
    <!-- Row 3 -->
    <g transform="translate(50,230)">
      <g fill="#fff" stroke="#9CA4AE" stroke-width="0.8">
        <rect width="20" height="60"/>
        <rect x="22" width="20" height="60"/>
        <rect x="44" width="20" height="60"/>
        <rect x="66" width="20" height="60"/>
        <rect x="88" width="20" height="60" fill="#06B6A4"/>
        <rect x="110" width="20" height="60"/>
        <rect x="132" width="20" height="60"/>
        <rect x="154" width="20" height="60"/>
        <rect x="176" width="20" height="60"/>
        <rect x="198" width="20" height="60"/>
        <rect x="220" width="20" height="60"/>
        <rect x="242" width="20" height="60" fill="#FB7185"/>
        <rect x="264" width="20" height="60"/>
        <rect x="286" width="20" height="60"/>
        <rect x="308" width="20" height="60"/>
        <rect x="330" width="20" height="60"/>
        <rect x="352" width="20" height="60"/>
      </g>
    </g>
    <!-- Row 4 -->
    <g transform="translate(50,330)">
      <g fill="#fff" stroke="#9CA4AE" stroke-width="0.8">
        <rect width="20" height="60"/>
        <rect x="22" width="20" height="60"/>
        <rect x="44" width="20" height="60"/>
        <rect x="66" width="20" height="60"/>
        <rect x="88" width="20" height="60"/>
        <rect x="110" width="20" height="60"/>
        <rect x="132" width="20" height="60"/>
        <rect x="154" width="20" height="60"/>
        <rect x="176" width="20" height="60"/>
        <rect x="198" width="20" height="60"/>
      </g>
    </g>
    <!-- Label strip -->
    <rect x="40" y="430" width="380" height="50" fill="#F1F5F9" stroke="#9CA4AE" stroke-width="1"/>
    <g fill="#64748B">
      <rect x="50" y="445" width="40" height="3"/>
      <rect x="100" y="445" width="40" height="3"/>
      <rect x="150" y="445" width="40" height="3"/>
      <rect x="200" y="445" width="40" height="3"/>
      <rect x="250" y="445" width="40" height="3"/>
      <rect x="300" y="445" width="40" height="3"/>
      <rect x="350" y="445" width="40" height="3"/>
      <rect x="50" y="460" width="60" height="3"/>
      <rect x="120" y="460" width="60" height="3"/>
      <rect x="190" y="460" width="60" height="3"/>
      <rect x="260" y="460" width="60" height="3"/>
      <rect x="330" y="460" width="60" height="3"/>
    </g>
  </g>
</svg>
